<svg width="66" height="66" viewBox="0 0 66 66" fill="none" xmlns="http://www.w3.org/2000/svg">
<circle cx="33" cy="33" r="33" fill="#FCECE5"/>
<path d="M36.0499 26C37.0267 26.1906 37.9243 26.6683 38.628 27.3719C39.3317 28.0756 39.8094 28.9733 39.9999 29.95M36.0499 22C38.0792 22.2254 39.9715 23.1342 41.4162 24.577C42.8608 26.0198 43.7719 27.911 43.9999 29.94M42.9999 37.92V40.92C43.0011 41.1985 42.944 41.4742 42.8324 41.7293C42.7209 41.9845 42.5572 42.2136 42.352 42.4019C42.1468 42.5901 41.9045 42.7335 41.6407 42.8227C41.3769 42.9119 41.0973 42.9451 40.8199 42.92C37.7428 42.5856 34.7869 41.5341 32.1899 39.85C29.7738 38.3147 27.7253 36.2662 26.1899 33.85C24.4999 31.2412 23.4482 28.271 23.1199 25.18C23.0949 24.9035 23.1278 24.6248 23.2164 24.3616C23.3051 24.0985 23.4475 23.8567 23.6347 23.6516C23.8219 23.4466 24.0497 23.2827 24.3037 23.1705C24.5577 23.0583 24.8323 23.0003 25.1099 23H28.1099C28.5952 22.9952 29.0657 23.1671 29.4337 23.4835C29.8017 23.8 30.042 24.2394 30.1099 24.72C30.2366 25.6801 30.4714 26.6227 30.8099 27.53C30.9445 27.8879 30.9736 28.2769 30.8938 28.6509C30.8141 29.0248 30.6288 29.3681 30.3599 29.64L29.0899 30.91C30.5135 33.4135 32.5864 35.4864 35.0899 36.91L36.3599 35.64C36.6318 35.3711 36.9751 35.1858 37.3491 35.1061C37.723 35.0263 38.112 35.0555 38.4699 35.19C39.3772 35.5286 40.3199 35.7634 41.2799 35.89C41.7657 35.9585 42.2093 36.2032 42.5265 36.5775C42.8436 36.9518 43.0121 37.4296 42.9999 37.92Z" stroke="black" stroke-width="2" stroke-linecap="round" stroke-linejoin="round"/>
</svg>
